<svg   viewBox="0 0 128 129" fill="none" xmlns="http://www.w3.org/2000/svg">
<path d="M14.9849 28.1466C14.7479 21.3316 20.0569 15.0476 27.2339 15.0476H100.774C107.951 15.0476 113.26 21.3316 113.023 28.1466C112.795 34.6926 113.091 43.1726 115.225 50.0866C117.366 57.0226 120.976 61.4056 126.889 61.9696V68.3566C120.976 68.9206 117.366 73.3036 115.225 80.2396C113.091 87.1536 112.795 95.6336 113.023 102.18C113.26 108.995 107.951 115.278 100.774 115.278H27.2339C20.0569 115.278 14.7479 108.994 14.9849 102.18C15.2129 95.6336 14.9169 87.1536 12.7819 80.2396C10.6419 73.3046 7.02189 68.9206 1.10889 68.3566V61.9696C7.02189 61.4066 10.6419 57.0226 12.7819 50.0866C14.9169 43.1726 15.2119 34.6926 14.9849 28.1466V28.1466Z" fill="url(#paint0_linear_614_1043)"/>
<g filter="url(#filter0_d_614_1043)">
<path d="M67.1097 92.1708C78.7286 92.1708 85.7302 86.4818 85.7302 77.0983C85.7302 70.0054 80.7344 64.8703 73.3165 64.0574V63.7619C78.7665 62.8753 83.0432 57.8142 83.0432 52.1621C83.0432 44.1086 76.685 38.8625 66.9962 38.8625H45.1963V92.1708H67.1097ZM53.674 45.6231H64.9525C71.0837 45.6231 74.5654 48.3568 74.5654 53.3071C74.5654 58.59 70.516 61.5453 63.1737 61.5453H53.674V45.6231ZM53.674 85.4102V67.8625H64.8766C72.9001 67.8625 77.0633 70.8178 77.0633 76.5809C77.0633 82.3439 73.0138 85.4102 65.3687 85.4102H53.674Z" fill="url(#paint1_linear_614_1043)"/>
<path d="M67.1097 92.1708C78.7286 92.1708 85.7302 86.4818 85.7302 77.0983C85.7302 70.0054 80.7344 64.8703 73.3165 64.0574V63.7619C78.7665 62.8753 83.0432 57.8142 83.0432 52.1621C83.0432 44.1086 76.685 38.8625 66.9962 38.8625H45.1963V92.1708H67.1097ZM53.674 45.6231H64.9525C71.0837 45.6231 74.5654 48.3568 74.5654 53.3071C74.5654 58.59 70.516 61.5453 63.1737 61.5453H53.674V45.6231ZM53.674 85.4102V67.8625H64.8766C72.9001 67.8625 77.0633 70.8178 77.0633 76.5809C77.0633 82.3439 73.0138 85.4102 65.3687 85.4102H53.674Z" stroke="white" stroke-width="0.24566"/>
</g>
<defs>
<filter id="filter0_d_614_1043" x="41.1427" y="35.7918" width="48.6409" height="61.4151" filterUnits="userSpaceOnUse" color-interpolation-filters="sRGB">
<feFlood flood-opacity="0" result="BackgroundImageFix"/>
<feColorMatrix in="SourceAlpha" type="matrix" values="0 0 0 0 0 0 0 0 0 0 0 0 0 0 0 0 0 0 127 0" result="hardAlpha"/>
<feOffset dy="0.98264"/>
<feGaussianBlur stdDeviation="1.96528"/>
<feColorMatrix type="matrix" values="0 0 0 0 0 0 0 0 0 0 0 0 0 0 0 0 0 0 0.15 0"/>
<feBlend mode="normal" in2="BackgroundImageFix" result="effect1_dropShadow_614_1043"/>
<feBlend mode="normal" in="SourceGraphic" in2="effect1_dropShadow_614_1043" result="shape"/>
</filter>
<linearGradient id="paint0_linear_614_1043" x1="19.7995" y1="17.7002" x2="129.708" y2="104.947" gradientUnits="userSpaceOnUse">
<stop stop-color="#9013FE"/>
<stop offset="1" stop-color="#6610F2"/>
</linearGradient>
<linearGradient id="paint1_linear_614_1043" x1="49.0315" y1="42.3706" x2="73.5975" y2="83.9191" gradientUnits="userSpaceOnUse">
<stop stop-color="white"/>
<stop offset="1" stop-color="#F1E5FC"/>
</linearGradient>
</defs>
</svg>
