<svg   viewBox="0 0 129 129" fill="none" xmlns="http://www.w3.org/2000/svg">
<path d="M118.167 33.9765L118.467 33.7765C117.867 32.6765 116.967 31.6765 116.067 31.1765L67.767 3.37651C66.967 2.87651 65.867 2.67651 64.667 2.67651C63.467 2.67651 62.367 2.97651 61.567 3.37651L13.567 31.2765C11.867 32.2765 10.667 34.7765 10.667 36.6765V92.3765C10.667 93.4765 10.867 94.6765 11.567 95.7765L11.367 95.8765C11.867 96.6765 12.567 97.3765 13.267 97.7765L61.467 125.677C62.267 126.177 63.367 126.377 64.567 126.377C65.767 126.377 66.867 126.077 67.667 125.677L115.667 97.7765C117.367 96.7765 118.567 94.2765 118.567 92.3765V36.5765C118.667 35.7765 118.567 34.8765 118.167 33.9765ZM82.667 66.4765V62.4765H87.667V57.4765H92.667V62.4765H97.667V66.4765H92.667V71.4765H87.667V66.4765H82.667ZM85.967 52.4765C81.767 44.9765 73.767 39.9765 64.667 39.9765C51.167 39.9765 40.167 50.9765 40.167 64.4765C40.167 77.9765 51.167 88.9765 64.667 88.9765C73.767 88.9765 81.767 83.9765 85.967 76.5765L98.867 84.1765C92.067 95.9765 79.267 103.977 64.667 103.977C42.867 103.977 25.167 86.2765 25.167 64.4765C25.167 42.6765 42.867 24.9765 64.667 24.9765C79.367 24.9765 92.167 33.0765 98.967 44.9765L85.967 52.4765ZM115.667 66.4765H110.667V71.4765H106.667V66.4765H100.667V62.4765H106.667V57.4765H110.667V62.4765H115.667V66.4765Z" fill="#1572B6"/>
</svg>
