<svg viewBox="0 0 128 128" fill="none" xmlns="http://www.w3.org/2000/svg">
<path d="M63.9999 48.9766C87.5641 48.9766 106.667 41.8131 106.667 32.9766C106.667 24.14 87.5641 16.9766 63.9999 16.9766C40.4358 16.9766 21.3333 24.14 21.3333 32.9766C21.3333 41.8131 40.4358 48.9766 63.9999 48.9766Z" stroke="#414858" stroke-width="8" stroke-linecap="round" stroke-linejoin="round"/>
<path d="M21.3333 32.9766V64.9766C21.3333 69.22 25.8285 73.2897 33.83 76.2903C41.8316 79.2909 52.684 80.9766 63.9999 80.9766C75.3158 80.9766 86.1683 79.2909 94.1698 76.2903C102.171 73.2897 106.667 69.22 106.667 64.9766V32.9766" stroke="#414858" stroke-width="8" stroke-linecap="round" stroke-linejoin="round"/>
<path d="M21.3333 64.9766V96.9766C21.3333 101.22 25.8285 105.29 33.83 108.29C41.8316 111.291 52.684 112.977 63.9999 112.977C75.3158 112.977 86.1683 111.291 94.1698 108.29C102.171 105.29 106.667 101.22 106.667 96.9766V64.9766" stroke="#414858" stroke-width="8" stroke-linecap="round" stroke-linejoin="round"/>
</svg>
