<svg   viewBox="0 0 128 129" fill="none" xmlns="http://www.w3.org/2000/svg">
<path d="M126.67 98.9133C122.11 100.073 119.29 98.9633 116.76 95.1633C111.08 86.6533 104.81 78.5333 98.7598 70.2633C97.9798 69.1933 97.1698 68.1433 96.1598 66.8133C88.9998 76.4733 81.8498 85.6733 75.1398 95.2433C72.7398 98.6633 70.2198 100.153 65.7398 98.9433L92.6598 62.8133L67.5998 30.1833C71.9098 29.3433 74.8898 29.7733 77.5298 33.6333C83.3598 42.1533 89.7898 50.2633 96.1998 58.8433C102.65 50.2933 109 42.1733 115 33.7333C117.41 30.3133 120 29.0133 124.33 30.2733C121.05 34.6233 117.84 38.9033 114.61 43.1533C110.25 48.8833 105.97 54.6833 101.45 60.2933C99.8398 62.2933 100.1 63.5933 101.54 65.4833C109.9 76.4733 118.16 87.5733 126.67 98.9133ZM1.3298 62.2133C2.0498 58.6033 2.5298 54.9233 3.5298 51.3833C9.5298 29.9533 34.1298 21.0433 51.0298 34.3233C60.9298 42.1133 63.3898 53.0933 62.8998 65.4733H7.0998C6.2598 87.6833 22.2498 101.093 42.6298 94.2533C49.7798 91.8533 53.9898 86.2533 56.0998 79.2533C57.1698 75.7433 58.9398 75.1933 62.2398 76.1933C60.5498 84.9533 56.7198 92.2733 48.7198 96.8533C36.7198 103.713 19.5898 101.493 10.5798 91.9633C5.2598 86.3633 2.9998 79.3933 1.9998 71.8633C1.8498 70.6633 1.5398 69.4833 1.2998 68.2933C1.3198 66.2666 1.3298 64.24 1.3298 62.2133V62.2133ZM7.1998 60.7233H57.6298C57.2998 44.6633 47.2998 33.2533 33.6298 33.1533C18.6298 33.0333 7.8498 44.1733 7.1998 60.7233V60.7233Z" fill="#F5B83D"/>
</svg>
