<svg viewBox="0 0 129 129" fill="none" xmlns="http://www.w3.org/2000/svg">
    <path d="M46.0947 129.477C57.9947 129.477 67.5947 119.877 67.5947 107.977V86.4766H46.0947C34.1947 86.4766 24.5947 96.0766 24.5947 107.977C24.5947 119.877 34.1947 129.477 46.0947 129.477Z" fill="#0ACF83"/>
    <path d="M24.5947 64.9766C24.5947 53.0766 34.1947 43.4766 46.0947 43.4766H67.5947V86.4766H46.0947C34.1947 86.4766 24.5947 76.8766 24.5947 64.9766Z" fill="#A259FF"/>
    <path d="M24.5947 21.9766C24.5947 10.0766 34.1947 0.476562 46.0947 0.476562H67.5947V43.4766H46.0947C34.1947 43.4766 24.5947 33.8766 24.5947 21.9766Z" fill="#F24E1E"/>
    <path d="M67.5947 0.476562H89.0947C100.995 0.476562 110.595 10.0766 110.595 21.9766C110.595 33.8766 100.995 43.4766 89.0947 43.4766H67.5947V0.476562Z" fill="#FF7262"/>
    <path d="M110.595 64.9766C110.595 76.8766 100.995 86.4766 89.0947 86.4766C77.1947 86.4766 67.5947 76.8766 67.5947 64.9766C67.5947 53.0766 77.1947 43.4766 89.0947 43.4766C100.995 43.4766 110.595 53.0766 110.595 64.9766Z" fill="#1ABCFE"/>
</svg>
