<svg  viewBox="0 0 129 129" fill="none" xmlns="http://www.w3.org/2000/svg">
    <path d="M125.071 59.3187L69.9545 4.20472C66.7825 1.03072 61.6345 1.03072 58.4575 4.20472L47.0135 15.6507L61.5315 30.1687C64.9065 29.0297 68.7745 29.7937 71.4635 32.4827C74.1665 35.1887 74.9245 39.0897 73.7575 42.4757L87.7495 56.4687C91.1345 55.3017 95.0415 56.0557 97.7435 58.7637C101.524 62.5407 101.524 68.6637 97.7435 72.4427C96.8452 73.3414 95.7787 74.0544 94.6048 74.5408C93.4309 75.0272 92.1727 75.2775 90.902 75.2775C89.6313 75.2775 88.3731 75.0272 87.1992 74.5408C86.0253 74.0544 84.9588 73.3414 84.0605 72.4427C82.7109 71.0923 81.7909 69.3728 81.4164 67.5007C81.0418 65.6286 81.2294 63.6875 81.9555 61.9217L68.9075 48.8737L68.9055 83.2147C69.8522 83.6809 70.7165 84.2984 71.4645 85.0427C75.2425 88.8197 75.2425 94.9407 71.4645 98.7257C67.6855 102.503 61.5605 102.503 57.7855 98.7257C54.0075 94.9417 54.0075 88.8207 57.7855 85.0427C58.6907 84.1361 59.7673 83.4189 60.9525 82.9327V48.2737C59.7663 47.7889 58.6894 47.0711 57.7855 46.1627C54.9235 43.3027 54.2345 39.1027 55.7025 35.5867L41.3895 21.2737L3.59751 59.0637C2.07283 60.5889 1.21631 62.6572 1.21631 64.8137C1.21631 66.9703 2.07283 69.0386 3.59751 70.5637L58.7145 125.678C61.8885 128.852 67.0345 128.852 70.2135 125.678L125.072 70.8197C126.596 69.2941 127.452 67.2257 127.452 65.069C127.452 62.9124 126.595 60.844 125.071 59.3187V59.3187Z" fill="#F34F29"/>
</svg>
