<svg viewBox="0 0 100 101" fill="none" xmlns="http://www.w3.org/2000/svg">
<path d="M1.5625 1.12939V98.7856H99.2188V1.12939H1.5625ZM53.218 84.3427C51.7766 87.2716 49.025 89.1958 45.8367 90.1247C40.9375 91.2497 36.2516 90.6083 32.7656 88.5161C30.4328 87.0849 28.6109 84.8817 27.3742 82.3435L34.8117 77.7888C34.8766 77.8161 35.0719 78.1692 35.3328 78.6255C36.2813 80.2146 37.0992 81.3396 38.707 82.1294C40.2867 82.6685 43.7547 83.013 45.0938 80.2333C45.9117 78.8192 45.6516 74.2739 45.6516 69.245C45.6508 61.3427 45.6875 53.4731 45.6875 45.6606H54.8352C54.8352 54.2544 54.882 62.3935 54.8352 70.7794C54.8547 75.92 55.3008 80.5028 53.218 84.3427ZM91.1664 81.7583C87.9867 92.6349 70.2586 92.988 63.1742 85.802C61.6773 84.1106 60.7391 83.227 59.8461 81.2747C63.6109 79.1091 63.6109 79.1091 67.2742 76.9895C69.2641 80.0481 71.1039 81.7302 74.4141 82.4185C78.9047 82.9669 83.4227 81.4239 82.4094 76.6544C81.368 72.7591 73.2141 71.8114 67.6648 67.6458C62.0312 63.8622 60.7109 54.6685 65.3406 49.4153C66.8836 47.4724 69.5148 46.0224 72.2758 45.3255L75.157 44.9528C80.6891 44.8411 84.1469 46.3021 86.6852 49.1364C87.3914 49.8521 87.968 50.6239 89.0461 52.2966C86.0992 54.1747 86.1086 54.1567 81.8875 56.8896C80.9859 54.9474 79.4898 53.7286 77.9086 53.1989C75.4539 52.4552 72.3586 53.2638 71.7164 55.8575C71.4937 56.6567 71.5398 57.4005 71.8938 58.7208C72.8883 60.9888 76.2258 61.9747 79.2195 63.3505C87.8375 66.8458 90.7477 70.5935 91.4633 75.0544C92.1523 78.895 91.2969 81.3864 91.1664 81.7583Z" fill="#F0DB4F"/>
</svg>
