<svg viewBox="0 0 128 128" fill="none" xmlns="http://www.w3.org/2000/svg">
<path d="M106.667 21.8099L95.9999 99.1433L63.9999 109.81L31.9999 99.1433L21.3333 21.8099H106.667Z" stroke="#414858" stroke-width="8" stroke-linecap="round" stroke-linejoin="round"/>
<path d="M40 43.1432H56V85.8099L45.3333 80.4765" stroke="#414858" stroke-width="8" stroke-linecap="round" stroke-linejoin="round"/>
<path d="M88 43.1432H74.6667C73.9594 43.1432 73.2811 43.4241 72.781 43.9242C72.2809 44.4243 72 45.1026 72 45.8099V61.8099C72 62.5171 72.2809 63.1954 72.781 63.6955C73.2811 64.1956 73.9594 64.4765 74.6667 64.4765H82.256C82.6377 64.4766 83.0149 64.5586 83.3622 64.717C83.7095 64.8754 84.0187 65.1065 84.269 65.3947C84.5193 65.6829 84.7048 66.0215 84.813 66.3875C84.9211 66.7536 84.9494 67.1386 84.896 67.5165L82.6667 83.1432L72 85.8099" stroke="#414858" stroke-width="8" stroke-linecap="round" stroke-linejoin="round"/>
</svg>
