<svg   viewBox="0 0 129 129" fill="none" xmlns="http://www.w3.org/2000/svg">
<path fill-rule="evenodd" clip-rule="evenodd" d="M88.8172 43.3865C90.4222 48.0295 91.5782 52.7695 91.9582 57.6825C92.4302 63.7775 92.2142 69.8295 90.9292 75.8245C90.8942 75.9895 90.8202 76.1445 90.7652 76.3045C90.3622 76.3055 89.9512 76.2555 89.5572 76.3165C86.2282 76.8395 82.9022 77.3815 79.5762 77.9205C76.1382 78.4775 72.6952 79.0125 69.2632 79.6075C68.0472 79.8175 66.5422 79.5665 66.0512 81.2485C66.0372 81.2945 65.8972 81.3025 65.8162 81.3285L65.9822 71.2775L65.8132 47.0255L67.4152 46.7505C70.0352 46.3215 72.6552 45.8865 75.2772 45.4695C78.4062 44.9725 81.5382 44.4895 84.6692 44.0045C86.0502 43.7895 87.4332 43.5925 88.8172 43.3865V43.3865Z" fill="#439934"/>
<path fill-rule="evenodd" clip-rule="evenodd" d="M62.5083 110.628C60.8183 109.175 59.0693 107.786 57.4493 106.258C48.7323 98.0364 42.3563 88.3594 39.2163 76.6924C38.3513 73.4814 37.7743 70.2184 37.5893 66.9004C37.4593 64.5784 37.2713 62.2354 37.4353 59.9254C37.8723 53.7814 38.7603 47.6964 40.5623 41.7784L40.6613 41.6404C40.8363 41.8734 41.0883 42.0794 41.1773 42.3424C42.9363 47.5224 44.6823 52.7064 46.4193 57.8934C51.8773 74.1934 57.3283 90.4974 62.7953 106.793C62.9023 107.111 63.1793 107.372 63.3783 107.659L62.5083 110.628V110.628Z" fill="#45A538"/>
<path fill-rule="evenodd" clip-rule="evenodd" d="M88.8173 43.3866C87.4333 43.5926 86.0493 43.7896 84.6683 44.0026C81.5373 44.4876 78.4053 44.9706 75.2763 45.4676C72.6543 45.8846 70.0343 46.3196 67.4143 46.7486L65.8123 47.0236L65.8003 45.9786C65.7473 45.1196 65.6563 44.2616 65.6463 43.4026C65.5773 37.9246 65.5343 32.4466 65.4663 26.9686C65.4243 23.5396 65.3613 20.1116 65.2913 16.6836C65.2483 14.5536 65.2023 12.4226 65.1063 10.2956C65.0543 9.15255 64.8703 8.01555 64.7953 6.87255C64.7533 6.21555 64.8113 5.55355 64.8243 4.89355C65.6413 6.47655 66.4403 8.07155 67.2803 9.64255C68.6073 12.1266 70.7213 13.9566 72.6243 15.9536C80.1473 23.8456 85.4883 33.0216 88.8173 43.3866V43.3866Z" fill="#46A037"/>
<path fill-rule="evenodd" clip-rule="evenodd" d="M65.8152 81.3275C65.8962 81.3015 66.0372 81.2934 66.0502 81.2474C66.5412 79.5654 68.0462 79.8165 69.2622 79.6065C72.6942 79.0125 76.1372 78.4765 79.5752 77.9195C82.9012 77.3805 86.2272 76.8385 89.5562 76.3155C89.9502 76.2535 90.3612 76.3044 90.7642 76.3034C90.1422 78.5234 89.6522 80.7915 88.8632 82.9505C87.9672 85.3995 86.8832 87.7895 85.7322 90.1325C84.0091 93.6271 81.8765 96.9045 79.3792 99.8955C77.4602 102.203 75.3212 104.336 73.1772 106.443C71.9922 107.608 70.5952 108.557 69.2952 109.604L68.9582 109.374L67.7442 108.336L66.4882 105.583C65.6303 102.372 65.1623 99.0689 65.0942 95.7455L65.1172 95.1845L65.2882 92.7585C65.3452 91.9305 65.4212 91.1035 65.4562 90.2735C65.5852 87.2915 65.6972 84.3095 65.8152 81.3275V81.3275Z" fill="#409433"/>
<path fill-rule="evenodd" clip-rule="evenodd" d="M65.8154 81.3276C65.6974 84.3096 65.5854 87.2916 65.4584 90.2746C65.4234 91.1046 65.3474 91.9316 65.2904 92.7596L64.5253 93.0486C62.8263 88.0466 61.1263 83.0976 59.4633 78.1356C56.7133 69.9266 53.9964 61.7046 51.2504 53.4936C49.0325 46.8661 46.7991 40.2437 44.5504 33.6266C44.4454 33.3166 44.1433 33.0746 43.9333 32.8006L48.8293 23.7986C48.9973 24.0906 49.2194 24.3636 49.3254 24.6776C51.5929 31.3797 53.8489 38.0857 56.0933 44.7956C59.0093 53.5256 61.9074 62.2626 64.8214 70.9936C64.9374 71.3426 65.1293 71.6646 65.3123 72.0556L65.9824 71.2756L65.8154 81.3276V81.3276Z" fill="#4FAA41"/>
<path fill-rule="evenodd" clip-rule="evenodd" d="M43.9344 32.8015C44.1444 33.0755 44.4454 33.3175 44.5514 33.6275C46.8001 40.2446 49.0335 46.867 51.2514 53.4945C53.9974 61.7055 56.7144 69.9275 59.4644 78.1365C61.1264 83.0975 62.8264 88.0475 64.5264 93.0495L65.2914 92.7605L65.1204 95.1865L64.9654 95.7455C64.6994 98.4015 64.4754 101.064 64.1514 103.714C63.9884 105.042 63.6424 106.346 63.3794 107.661C63.1814 107.374 62.9034 107.113 62.7964 106.795C57.3294 90.4975 51.8784 74.1945 46.4204 57.8945C44.684 52.7072 42.9366 47.5235 41.1784 42.3435C41.0894 42.0805 40.8384 41.8745 40.6624 41.6415L43.9344 32.8015V32.8015Z" fill="#4AA73C"/>
<path fill-rule="evenodd" clip-rule="evenodd" d="M65.9814 71.2765L65.3114 72.0565C65.1284 71.6655 64.9364 71.3425 64.8204 70.9945C61.9074 62.2635 59.0084 53.5265 56.0924 44.7965C53.8479 38.0866 51.5919 31.3806 49.3244 24.6785C49.2194 24.3645 48.9974 24.0905 48.8284 23.7995L54.8834 15.8345C55.0744 16.0895 55.3464 16.3165 55.4454 16.6035C57.1264 21.5245 58.7924 26.4515 60.4484 31.3815C61.9954 35.9855 63.5194 40.5965 65.0844 45.1945C65.1894 45.5025 65.5544 45.7205 65.7984 45.9805L65.8104 47.0255C65.8684 55.1075 65.9254 63.1925 65.9814 71.2765V71.2765Z" fill="#57AE47"/>
<path fill-rule="evenodd" clip-rule="evenodd" d="M65.8003 45.9784C65.5563 45.7184 65.1913 45.5004 65.0863 45.1924C63.5213 40.5944 61.9973 35.9834 60.4503 31.3794C58.7943 26.4494 57.1283 21.5234 55.4473 16.6014C55.3483 16.3144 55.0763 16.0874 54.8853 15.8324C56.8543 13.9044 58.7623 11.9074 60.8103 10.0684C62.6313 8.43443 64.0953 6.68243 64.1623 4.10043C64.1653 3.99343 64.2213 3.88643 64.3073 3.58643L64.8263 4.89243C64.8133 5.55343 64.7543 6.21443 64.7973 6.87143C64.8723 8.01443 65.0563 9.15143 65.1083 10.2944C65.2043 12.4214 65.2503 14.5524 65.2933 16.6824C65.3623 20.1104 65.4253 23.5384 65.4683 26.9674C65.5353 32.4454 65.5793 37.9234 65.6483 43.4014C65.6563 44.2624 65.7463 45.1194 65.8003 45.9784V45.9784Z" fill="#60B24F"/>
<path fill-rule="evenodd" clip-rule="evenodd" d="M63.3773 107.659C63.6403 106.344 63.9863 105.039 64.1493 103.712C64.4743 101.063 64.6973 98.4004 64.9633 95.7444L65.0293 95.7344L65.0953 95.7454C65.1634 99.0688 65.6314 102.372 66.4893 105.583C66.3133 105.815 66.0643 106.022 65.9713 106.284C65.2443 108.334 64.5593 110.4 63.8283 112.45C63.7283 112.73 63.4503 112.948 63.2543 113.194L62.5073 110.628L63.3773 107.659V107.659Z" fill="#A9AA88"/>
<path fill-rule="evenodd" clip-rule="evenodd" d="M63.2554 113.195C63.4514 112.949 63.7304 112.731 63.8294 112.451C64.5604 110.401 65.2464 108.336 65.9724 106.285C66.0654 106.023 66.3134 105.816 66.4904 105.584L67.7454 108.338C67.4974 108.69 67.1554 109.007 67.0174 109.399L64.6134 116.458C64.5144 116.741 64.1764 116.941 63.9504 117.18L63.2554 113.195V113.195Z" fill="#B6B598"/>
<path fill-rule="evenodd" clip-rule="evenodd" d="M63.9502 117.179C64.1772 116.941 64.5142 116.74 64.6132 116.457L67.0172 109.398C67.1542 109.007 67.4972 108.689 67.7452 108.337L68.9602 109.374C68.3732 109.954 68.0472 110.624 68.2432 111.471L67.8742 112.679C67.7062 112.886 67.4632 113.066 67.3802 113.303C66.5412 115.706 65.7402 118.122 64.8952 120.525C64.7882 120.83 64.4912 121.069 64.2812 121.337C64.1722 119.95 64.0612 118.566 63.9502 117.179V117.179Z" fill="#C2C1A7"/>
<path fill-rule="evenodd" clip-rule="evenodd" d="M64.2823 121.337C64.4913 121.068 64.7883 120.829 64.8963 120.525C65.7413 118.123 66.5423 115.707 67.3813 113.303C67.4643 113.067 67.7063 112.886 67.8753 112.679L67.3663 118.224C67.2303 118.381 67.0333 118.518 66.9683 118.701C66.3933 120.315 65.8513 121.941 65.2743 123.555C65.1553 123.888 64.9273 124.182 64.7493 124.493C64.5913 124.286 64.3083 124.086 64.2953 123.87C64.2443 123.029 64.2793 122.182 64.2823 121.337V121.337Z" fill="#CECDB7"/>
<path fill-rule="evenodd" clip-rule="evenodd" d="M64.7483 124.493C64.9263 124.181 65.1543 123.887 65.2733 123.555C65.8513 121.942 66.3923 120.316 66.9673 118.701C67.0323 118.518 67.2303 118.382 67.3653 118.224L67.3773 121.864L66.1593 124.988L64.7483 124.493V124.493Z" fill="#DBDAC7"/>
<path fill-rule="evenodd" clip-rule="evenodd" d="M66.1592 124.989L67.3772 121.865L67.6282 125.561L66.1592 124.989V124.989Z" fill="#EBE9DC"/>
<path fill-rule="evenodd" clip-rule="evenodd" d="M68.2432 111.472C68.0472 110.625 68.3722 109.954 68.9602 109.375L69.2972 109.605L68.2432 111.472V111.472Z" fill="#CECDB7"/>
<path fill-rule="evenodd" clip-rule="evenodd" d="M65.0954 95.7465L65.0294 95.7355L64.9634 95.7455L65.1184 95.1865L65.0954 95.7465V95.7465Z" fill="#4FAA41"/>
</svg>
