<svg   viewBox="0 0 128 129" fill="none" xmlns="http://www.w3.org/2000/svg">
<path d="M116.948 98.3816C110.085 98.1946 104.844 98.8336 100.363 100.723C99.0901 101.26 97.0581 101.275 96.8501 102.87C97.5501 103.603 97.6591 104.699 98.2151 105.601C99.2851 107.331 101.091 109.653 102.703 110.869C104.465 112.199 106.28 113.62 108.168 114.771C111.526 116.818 115.275 117.988 118.508 120.039C120.414 121.249 122.307 122.772 124.166 124.136C125.086 124.811 125.703 125.86 126.898 126.283V126.089C126.27 125.289 126.108 124.191 125.532 123.356L122.995 120.819C120.515 117.527 117.366 114.635 114.019 112.234C111.35 110.318 105.377 107.73 104.264 104.625L104.069 104.43C105.961 104.216 108.176 103.532 109.923 103.063C112.857 102.277 115.479 102.48 118.508 101.698L122.605 100.527V99.7466C121.074 98.1756 119.982 96.0956 118.313 94.6736C113.943 90.9536 109.175 87.2366 104.265 84.1366C101.541 82.4186 98.1761 81.3016 95.2891 79.8446C94.3181 79.3536 92.6121 79.0986 91.9711 78.2826C90.4541 76.3506 89.6291 73.9006 88.4601 71.6496C86.0111 66.9326 83.6061 61.7816 81.4361 56.8186C79.9561 53.4346 78.9891 50.0986 77.1431 47.0626C68.2831 32.4956 58.7471 23.7046 43.9741 15.0626C40.8301 13.2246 37.0451 12.4996 33.0451 11.5496C30.9001 11.4206 28.7531 11.2896 26.6071 11.1586C25.2961 10.6126 23.9341 9.00955 22.7051 8.23155C17.8111 5.13955 5.25712 -1.58545 1.63312 7.25655C-0.655885 12.8376 5.05412 18.2816 7.09512 21.1106C8.52912 23.0926 10.3641 25.3176 11.3881 27.5486C12.0621 29.0156 12.1781 30.4866 12.7551 32.0376C14.1721 35.8596 15.4071 40.0176 17.2421 43.5486C18.1691 45.3366 19.1911 47.2186 20.3641 48.8166C21.0821 49.7976 22.3151 50.2296 22.5091 51.7436C21.3051 53.4296 21.2361 56.0476 20.5591 58.1836C17.5091 67.7986 18.6601 79.7506 23.0961 86.8666C24.4561 89.0526 27.6631 93.7376 32.0711 91.9396C35.9271 90.3696 35.0661 85.5016 36.1691 81.2076C36.4181 80.2346 36.2651 79.5186 36.7541 78.8666V79.0616L40.2671 86.0856C42.8671 90.2726 47.4791 94.6476 51.3891 97.5996C53.4161 99.1306 55.0121 101.777 57.6331 102.673V102.477H57.4381C56.9301 101.686 56.1351 101.358 55.4871 100.722C53.9601 99.2246 52.2621 97.3636 51.0001 95.6486C47.4441 90.8216 44.3021 85.5386 41.4391 80.0396C40.0711 77.4126 38.8821 74.5166 37.7301 71.8436C37.2861 70.8136 37.2921 69.2546 36.3661 68.7216C35.1031 70.6796 33.2441 72.2636 32.2681 74.5756C30.7071 78.2716 30.5061 82.7796 29.9271 87.4536C29.5851 87.5756 29.7371 87.4916 29.5361 87.6476C26.8181 86.9926 25.8641 84.1956 24.8531 81.7946C22.2991 75.7246 21.8241 65.9526 24.0721 58.9656C24.6541 57.1566 27.2821 51.4646 26.2181 49.7936C25.7101 48.1276 24.0341 47.1636 23.0971 45.8906C21.9361 44.3166 20.7781 42.2446 19.9731 40.4266C17.8831 35.6956 16.9071 30.3826 14.7061 25.5986C13.6531 23.3116 11.8741 20.9966 10.4131 18.9646C8.79612 16.7116 6.98412 15.0526 5.73012 12.3296C5.28412 11.3616 4.67912 9.81155 5.33912 8.81655C5.54912 8.14555 5.84712 7.86555 6.51012 7.64655C7.64212 6.77355 10.7941 7.93655 11.9721 8.42555C15.1011 9.72555 17.7131 10.9636 20.3641 12.7196C21.6351 13.5636 22.9231 15.1946 24.4611 15.6466H26.2171C28.9641 16.2776 32.0411 15.8416 34.6081 16.6216C39.1441 17.9996 43.2091 20.1446 46.9001 22.4756C58.1461 29.5776 67.3421 39.6856 73.6321 51.7446C74.6441 53.6866 75.0821 55.5386 75.9731 57.5986C77.7711 61.7516 80.0361 66.0246 81.8251 70.0866C83.6111 74.1386 85.3511 78.2276 87.8751 81.5996C89.2021 83.3716 94.3261 84.3226 96.6561 85.3076C98.2881 85.9966 100.963 86.7166 102.51 87.6476C105.463 89.4296 108.325 91.5506 111.096 93.5026C112.479 94.4776 116.736 96.6186 116.948 98.3816V98.3816ZM29.7291 24.0406C28.2981 24.0136 27.2861 24.1966 26.2161 24.4296V24.6246H26.4111C27.0941 26.0266 28.2991 26.9306 29.1421 28.1376C29.7921 29.5046 30.4431 30.8696 31.0941 32.2346L31.2881 32.0416C32.4971 31.1886 33.0501 29.8276 33.0431 27.7476C32.5591 27.2386 32.4881 26.6006 32.0681 25.9926C31.5121 25.1816 30.4331 24.7206 29.7291 24.0406Z" fill="#00618A"/>
</svg>
