<svg   viewBox="0 0 129 129" fill="none" xmlns="http://www.w3.org/2000/svg">
<path d="M113.479 30.8074L69.382 5.2024C66.601 3.6184 62.98 3.6184 60.177 5.2024L15.609 30.8074C12.739 32.4584 10.708 35.5614 10.708 38.8804V90.0224C10.708 93.3414 12.792 96.4454 15.662 98.1054L27.437 104.793C33.065 107.565 35.054 107.565 37.615 107.565C45.948 107.565 50.708 102.526 50.708 93.7374V43.2474C50.708 42.5344 50.337 41.4734 49.637 41.4734H44.014C43.302 41.4734 41.708 42.5344 41.708 43.2464V93.7364C41.708 97.6324 38.184 101.509 31.598 98.2164L19.431 91.2034C19.007 90.9734 18.708 90.5104 18.708 90.0224V38.8804C18.708 38.3984 19.263 37.9144 19.69 37.6674L64.114 12.1064C64.529 11.8714 65.139 11.8714 65.553 12.1064L109.435 37.6614C109.855 37.9144 109.707 38.3834 109.707 38.8804V90.0224C109.707 90.5104 109.89 90.9854 109.475 91.2204L65.389 116.796C65.011 117.023 64.542 117.023 64.128 116.796L52.821 110.047C52.48 109.849 52.075 109.778 51.748 109.961C48.602 111.744 48.022 111.981 45.071 113.004C44.345 113.257 43.274 113.696 45.481 114.933L60.279 123.687C61.6918 124.503 63.2945 124.933 64.926 124.933C66.568 124.933 68.176 124.507 69.593 123.687L113.478 98.1054C116.348 96.4334 117.708 93.3414 117.708 90.0224V38.8804C117.708 35.5614 116.348 32.4664 113.479 30.8074V30.8074ZM78.618 81.9184C66.892 81.9184 64.309 78.6834 63.448 72.8524C63.348 72.2244 62.815 71.4734 62.176 71.4734H56.445C55.736 71.4734 55.166 72.3334 55.166 73.0394C55.166 80.5054 59.225 89.5514 78.619 89.5514C92.658 89.5514 100.707 84.0964 100.707 74.4424C100.707 64.8704 94.24 62.3584 80.625 60.5564C66.863 58.7374 65.465 57.8184 65.465 54.5944C65.465 51.9364 66.649 48.3914 76.839 48.3914C85.944 48.3914 89.3 50.3454 90.681 56.4824C90.799 57.0594 91.326 57.4734 91.921 57.4734H97.675C98.029 57.4734 98.367 57.3304 98.615 57.0774C98.855 56.8054 98.982 56.4644 98.95 56.0984C98.059 45.5304 91.038 40.6054 76.838 40.6054C64.207 40.6054 56.672 45.9394 56.672 54.8804C56.672 64.5784 64.169 67.2584 76.294 68.4574C90.799 69.8794 91.927 71.9994 91.927 74.8524C91.927 79.8074 87.949 81.9184 78.618 81.9184Z" fill="#83CD29"/>
</svg>
