<svg   viewBox="0 0 128 129" fill="none" xmlns="http://www.w3.org/2000/svg">
<path d="M114.654 25.4061C106.916 15.3871 96.3819 7.88751 84.3822 3.85594C72.3826 -0.17563 59.4569 -0.558118 47.2398 2.75685C35.0228 6.07181 24.0632 12.9353 15.7472 22.4793C7.4311 32.0234 2.13213 43.8192 0.52041 56.375C-1.09131 68.9307 1.05663 81.6825 6.69256 93.0174C12.3285 104.352 21.1993 113.761 32.183 120.055C43.1667 126.348 55.7699 129.242 68.3988 128.372C81.0276 127.502 93.1148 122.906 103.132 115.166C131.092 93.5581 136.252 53.3761 114.652 25.4061H114.654Z" fill="#FF6C37"/>
<path d="M85.5856 41.3021L58.5996 68.5021L50.9736 60.6621C77.5336 34.1021 80.1996 36.5021 85.5876 41.3021H85.5856Z" fill="white"/>
<path d="M58.5998 69.2461C58.3608 69.2402 58.1326 69.1454 57.9598 68.9801L50.2798 61.3001C50.1069 61.1211 50.0103 60.882 50.0103 60.6331C50.0103 60.3842 50.1069 60.1451 50.2798 59.9661C76.4658 33.7801 80.0398 35.0061 86.2258 40.6061C86.3294 40.689 86.4122 40.7948 86.4678 40.9153C86.5233 41.0358 86.55 41.1675 86.5458 41.3001C86.5858 41.5601 86.4858 41.8261 86.2798 41.9941L59.2938 68.9821C59.1046 69.1556 58.8565 69.2507 58.5998 69.2481V69.2461ZM52.3058 60.6601L58.5998 66.9541L84.1998 41.3541C83.3159 40.2464 82.0547 39.5034 80.6573 39.2672C79.26 39.0311 77.8246 39.3184 76.6258 40.0741C71.9858 42.1541 64.5198 48.5001 52.3058 60.6601V60.6601Z" fill="#FF6C37"/>
<path d="M66.3336 76.022L58.9736 68.502L85.9596 41.834C93.2136 48.928 82.4396 60.768 66.3336 76.02V76.022Z" fill="white"/>
<path d="M66.3335 76.9821C66.0974 76.9633 65.8733 76.8702 65.6935 76.7161L58.1735 69.3561C58.0607 69.0826 58.0607 68.7756 58.1735 68.5021C58.0935 68.2777 58.0935 68.0325 58.1735 67.8081L85.1595 40.8221C85.3471 40.6458 85.5949 40.5476 85.8524 40.5476C86.11 40.5476 86.3578 40.6458 86.5454 40.8221C87.4194 41.6265 88.1098 42.6096 88.5699 43.7046C89.0299 44.7997 89.2487 45.981 89.2114 47.1681C89.2114 54.3681 80.9975 63.4341 67.0255 76.6621C66.8388 76.8468 66.5932 76.9601 66.3315 76.9821H66.3335ZM60.3595 68.5021L66.3855 74.5261C77.0515 64.4461 87.2395 54.0461 87.2915 47.0061C87.3495 45.5137 86.8561 44.0521 85.9054 42.9001L60.3595 68.5021Z" fill="#FF6C37"/>
<path d="M51.1855 60.8221L56.5195 66.1561C56.5535 66.1861 56.5808 66.223 56.5995 66.2644C56.6182 66.3058 56.6278 66.3507 56.6278 66.3961C56.6278 66.4415 56.6182 66.4863 56.5995 66.5277C56.5808 66.5691 56.5535 66.606 56.5195 66.6361L45.2655 69.0361C45.0383 69.0851 44.8014 69.0585 44.5907 68.9604C44.38 68.8623 44.2071 68.6981 44.0984 68.4927C43.9897 68.2873 43.9511 68.052 43.9885 67.8226C44.0259 67.5932 44.1372 67.3823 44.3055 67.2221L50.8655 60.7161C50.8655 60.7161 51.0795 60.7161 51.1855 60.8221Z" fill="white"/>
<path d="M44.9997 70.1021C44.6441 70.0977 44.2956 70.0021 43.9875 69.8246C43.6793 69.6471 43.4219 69.3935 43.2397 69.0881C43.0346 68.7013 42.9602 68.2585 43.0276 67.8259C43.095 67.3934 43.3006 66.9942 43.6137 66.6881L50.1197 60.1281C50.3543 59.9184 50.658 59.8025 50.9727 59.8025C51.2873 59.8025 51.591 59.9184 51.8257 60.1281L57.1597 65.4621C57.4757 65.7621 57.5996 66.2161 57.4796 66.6361C57.3596 67.0561 57.0077 67.3901 56.5737 67.4901L45.3197 69.8901L44.9997 70.1021ZM50.9737 61.9961L44.9477 68.0221L54.9217 65.8881L50.9737 61.9961Z" fill="#FF6C37"/>
<path d="M99.9338 26.3141C96.0738 22.5901 90.0098 22.4341 85.9618 25.9481C81.9138 29.4621 81.2218 35.4941 84.3738 39.8341C87.5258 44.1741 93.4678 45.3901 98.0678 42.6341L90.8138 35.3801L99.9338 26.3141Z" fill="white"/>
<path d="M92.7335 45.0861C90.5158 45.0577 88.3555 44.3773 86.5218 43.1297C84.6881 41.8821 83.2621 40.1225 82.4215 38.0701C81.5814 36.0193 81.361 33.7672 81.7876 31.5924C82.2142 29.4176 83.269 27.4156 84.8215 25.8341C86.9568 23.738 89.8294 22.5637 92.8215 22.5637C95.8136 22.5637 98.6862 23.738 100.821 25.8341C101.025 26.0061 101.141 26.2601 101.141 26.5281C101.141 26.6599 101.112 26.7902 101.057 26.9099C101.002 27.0296 100.921 27.1361 100.821 27.2221L92.1815 35.3821L98.7415 41.8361C98.8478 41.9376 98.9276 42.0636 98.9739 42.203C99.0203 42.3425 99.0318 42.4912 99.0075 42.6361C98.9917 42.7759 98.9453 42.9106 98.8717 43.0305C98.7981 43.1504 98.699 43.2527 98.5815 43.3301C96.8191 44.4317 94.7932 45.0395 92.7155 45.0901L92.7335 45.0861ZM92.7335 24.3921C88.9335 24.4121 85.5335 26.6981 84.1075 30.1921C82.6815 33.6861 83.4575 37.7081 86.1215 40.3921C87.4466 41.7249 89.1432 42.6264 90.9893 42.9786C92.8354 43.3309 94.7448 43.1174 96.4675 42.3661L90.1735 36.0721C90.0734 35.9921 89.9927 35.8906 89.9371 35.7751C89.8816 35.6597 89.8528 35.5332 89.8528 35.4051C89.8528 35.277 89.8816 35.1505 89.9371 35.035C89.9927 34.9196 90.0734 34.8181 90.1735 34.7381L98.4935 26.3641C96.8396 25.0966 94.8172 24.4035 92.7335 24.3901V24.3921Z" fill="#FF6C37"/>
<path d="M100.094 26.4741L90.9736 35.5401L98.2276 42.7941C98.9577 42.375 99.6375 41.8737 100.254 41.3001C102.155 39.2906 103.201 36.621 103.171 33.8548C103.141 31.0886 102.038 28.4422 100.094 26.4741V26.4741Z" fill="white"/>
<path d="M98.0658 43.5941C97.946 43.6006 97.8262 43.5801 97.7155 43.534C97.6047 43.488 97.5057 43.4176 97.4258 43.3281L90.1718 36.0741C90.0717 35.9941 89.9909 35.8926 89.9354 35.7772C89.8799 35.6617 89.8511 35.5352 89.8511 35.4071C89.8511 35.279 89.8799 35.1525 89.9354 35.0371C89.9909 34.9216 90.0717 34.8201 90.1718 34.7401L99.2378 25.8341C99.3253 25.7021 99.4442 25.5938 99.5838 25.5189C99.7234 25.444 99.8793 25.4048 100.038 25.4048C100.196 25.4048 100.352 25.444 100.492 25.5189C100.631 25.5938 100.75 25.7021 100.838 25.8341C101.902 26.8769 102.748 28.1216 103.325 29.4953C103.902 30.869 104.199 32.3441 104.199 33.8341C104.199 35.3242 103.902 36.7992 103.325 38.1729C102.748 39.5466 101.902 40.7913 100.838 41.8341C100.21 42.5 99.4916 43.0743 98.7038 43.5401C98.5054 43.6401 98.2761 43.6594 98.0638 43.5941H98.0658ZM92.1998 35.3821L98.2258 41.4081C98.6403 41.1176 99.0327 40.7967 99.3998 40.4481C101.171 38.6815 102.169 36.2839 102.174 33.7821C102.178 31.5432 101.362 29.3803 99.8798 27.7021L92.1998 35.3821Z" fill="#FF6C37"/>
<path d="M86.7054 42.4222C85.983 41.7438 85.0293 41.3662 84.0384 41.3662C83.0474 41.3662 82.0937 41.7438 81.3714 42.4222L57.2134 66.5261L61.2134 70.5801L86.7594 48.1802C87.1489 47.8068 87.458 47.3576 87.6674 46.8603C87.8769 46.363 87.9823 45.8281 87.9773 45.2885C87.9722 44.7489 87.8568 44.216 87.638 43.7228C87.4193 43.2295 87.1019 42.7862 86.7054 42.4202V42.4222Z" fill="white"/>
<path d="M60.9997 71.5421C60.7607 71.5362 60.5325 71.4414 60.3597 71.2761L56.3057 67.2221C56.1328 67.0431 56.0361 66.804 56.0361 66.5551C56.0361 66.3062 56.1328 66.0671 56.3057 65.8881L80.4657 41.8341C81.1616 41.1391 82.0502 40.6691 83.0164 40.4852C83.9826 40.3013 84.9818 40.412 85.8843 40.8028C86.7869 41.1936 87.5512 41.8466 88.0781 42.677C88.6051 43.5075 88.8704 44.4771 88.8397 45.4601C88.812 46.1274 88.6514 46.7824 88.3674 47.3868C88.0834 47.9912 87.6817 48.5329 87.1857 48.9801L61.6397 71.3801C61.4539 71.5116 61.2255 71.5687 60.9997 71.5401V71.5421ZM58.1737 66.5261L60.8397 69.2461L85.9057 47.4321C86.5257 46.8921 86.8957 46.1201 86.9197 45.2981C86.9437 44.4761 86.6197 43.6721 86.0137 43.1121C85.4541 42.5548 84.6965 42.242 83.9067 42.242C83.1169 42.242 82.3593 42.5548 81.7997 43.1121L58.1737 66.5261Z" fill="#FF6C37"/>
<path d="M38.4934 93.9941C38.4252 94.0869 38.3884 94.199 38.3884 94.3141C38.3884 94.4293 38.4252 94.5414 38.4934 94.6341L39.5594 99.2741C39.6021 99.5472 39.5617 99.8268 39.4432 100.076C39.3248 100.326 39.1339 100.534 38.8954 100.674C38.6578 100.813 38.3822 100.873 38.1083 100.845C37.8345 100.818 37.5764 100.704 37.3714 100.52L30.0654 93.4801L52.8394 70.5261H60.7334L66.0674 75.8601C57.7468 83.135 48.4693 89.2363 38.4934 93.9941V93.9941Z" fill="white"/>
<path d="M38.0136 101.834C37.4096 101.822 36.8136 101.574 36.4136 101.14L29.4276 94.1541C29.3276 94.0741 29.2468 93.9726 29.1913 93.8571C29.1358 93.7417 29.1069 93.6152 29.1069 93.4871C29.1069 93.359 29.1358 93.2325 29.1913 93.117C29.2468 93.0016 29.3276 92.9001 29.4276 92.8201L52.3596 69.8341C52.488 69.6976 52.6558 69.6046 52.8396 69.5681H60.7856C60.9927 69.4949 61.2186 69.4949 61.4256 69.5681L66.7596 74.9021C66.861 74.9956 66.9382 75.1124 66.9846 75.2423C67.0309 75.3722 67.045 75.5115 67.0256 75.6481C67.0294 75.7806 67.0024 75.9122 66.9469 76.0326C66.8914 76.153 66.8088 76.2589 66.7056 76.3421L66.2796 76.7161C57.9254 83.6807 48.7344 89.575 38.9196 94.2621L39.9336 98.5821C40.012 98.9153 40.015 99.2619 39.9424 99.5964C39.8698 99.931 39.7234 100.245 39.514 100.516C39.3045 100.787 39.0372 101.007 38.7316 101.162C38.4261 101.316 38.0899 101.4 37.7476 101.408L38.0136 101.834ZM31.5076 93.4601L37.7996 99.8061C37.8582 99.8584 37.9341 99.8873 38.0126 99.8873C38.0912 99.8873 38.167 99.8584 38.2256 99.8061C38.2648 99.7516 38.2859 99.6862 38.2859 99.6191C38.2859 99.552 38.2648 99.4865 38.2256 99.4321L37.1596 94.7921C37.0756 94.4591 37.1094 94.1073 37.2552 93.7963C37.401 93.4854 37.6499 93.2344 37.9596 93.0861C47.5105 88.4615 56.4646 82.6947 64.6256 75.9121L60.2516 71.5381H53.1056L31.5076 93.4601Z" fill="#FF6C37"/>
<path d="M24.5738 98.9541L29.9078 93.6201L38.1218 101.834L25.0558 100.928C24.8315 100.911 24.6184 100.823 24.4471 100.677C24.2757 100.531 24.1548 100.335 24.1016 100.116C24.0484 99.8973 24.0656 99.6675 24.1507 99.4592C24.2359 99.2509 24.3847 99.0748 24.5758 98.9561L24.5738 98.9541Z" fill="white"/>
<path d="M38.2796 102.634L25.2656 101.728C24.4936 101.656 23.8296 101.128 23.5576 100.422C23.2856 99.716 23.4516 98.878 23.9856 98.314L29.3196 92.98C29.4986 92.8071 29.7377 92.7104 29.9866 92.7104C30.2354 92.7104 30.4746 92.8071 30.6536 92.98L38.8136 101.14C38.9265 101.295 38.9874 101.481 38.9874 101.673C38.9874 101.865 38.9265 102.051 38.8136 102.206C38.6902 102.405 38.5015 102.556 38.2796 102.632V102.634ZM25.2656 99.648L35.9316 100.342L30.0656 94.848L25.2656 99.648Z" fill="#FF6C37"/>
<path d="M61.4796 71.1702L50.7056 72.8242L56.9456 66.6382L61.4796 71.1702Z" fill="white"/>
<path d="M50.7056 73.834C50.5265 73.8387 50.35 73.7905 50.1982 73.6956C50.0463 73.6006 49.9257 73.463 49.8516 73.3C49.738 73.1455 49.6768 72.9587 49.6768 72.767C49.6768 72.5752 49.738 72.3885 49.8516 72.234L56.0376 65.994C56.2252 65.8177 56.473 65.7195 56.7306 65.7195C56.9881 65.7195 57.2359 65.8177 57.4236 65.994L61.9596 70.526C62.0502 70.6697 62.0982 70.8361 62.0982 71.006C62.0982 71.1759 62.0502 71.3423 61.9596 71.486C61.9151 71.6611 61.8211 71.8197 61.6887 71.9428C61.5564 72.0659 61.3915 72.1483 61.2136 72.18L50.5476 73.834H50.7056ZM56.9456 68.02L53.4796 71.486L59.4536 70.58L56.9456 68.02Z" fill="#FF6C37"/>
<path d="M61.4796 71.1661L53.9596 72.1261C53.7584 72.1718 53.5478 72.1514 53.359 72.0679C53.1703 71.9845 53.0134 71.8425 52.9117 71.6629C52.8101 71.4833 52.7689 71.2758 52.7945 71.071C52.8201 70.8662 52.9109 70.6752 53.0536 70.5261L56.9476 66.6321L61.4796 71.1661Z" fill="white"/>
<path d="M53.7457 73.1422C53.3971 73.1388 53.0556 73.0433 52.756 72.8652C52.4563 72.6871 52.2092 72.4328 52.0397 72.1282C51.836 71.7631 51.757 71.3415 51.8148 70.9275C51.8726 70.5135 52.0639 70.1296 52.3597 69.8342L56.2537 65.9402C56.4413 65.7638 56.6892 65.6657 56.9467 65.6657C57.2042 65.6657 57.452 65.7638 57.6397 65.9402L62.1737 70.4742C62.3085 70.6019 62.4034 70.7661 62.4468 70.9467C62.4902 71.1273 62.4803 71.3166 62.4183 71.4916C62.3563 71.6667 62.2448 71.8201 62.0973 71.933C61.9499 72.046 61.7729 72.1138 61.5877 72.1282L54.1217 73.0882L53.7457 73.1422ZM53.7457 71.1682L59.3997 70.4742L56.8937 67.9682L53.6937 71.1682H53.7457ZM100.146 32.6082C100.045 32.4399 99.8864 32.3143 99.6995 32.2554C99.5126 32.1964 99.3105 32.208 99.1317 32.2882C99.0434 32.3329 98.965 32.3949 98.9011 32.4705C98.8372 32.5461 98.7891 32.6337 98.7597 32.7282C98.7003 32.9189 98.719 33.1253 98.8117 33.3022C99.1857 34.0882 99.0817 35.0182 98.5457 35.7022C98.4791 35.7681 98.4269 35.8471 98.3925 35.9342C98.3581 36.0213 98.3421 36.1146 98.3457 36.2082C98.3476 36.3958 98.4188 36.576 98.5457 36.7142C98.6825 36.7682 98.8348 36.7682 98.9717 36.7142C99.0958 36.7454 99.2262 36.742 99.3486 36.7042C99.4709 36.6665 99.5806 36.5959 99.6657 36.5002C100.105 35.9625 100.383 35.3115 100.468 34.6225C100.553 33.9334 100.441 33.2344 100.146 32.6062V32.6082Z" fill="#FF6C37"/>
</svg>
