<svg   viewBox="0 0 128 129" fill="none" xmlns="http://www.w3.org/2000/svg">
<path d="M63.3912 12.5961C59.1692 12.6161 55.1392 12.9751 51.5912 13.6031C41.1412 15.4491 39.2452 19.3131 39.2452 26.4401V35.8511H63.9382V38.9881H29.9772C22.8012 38.9881 16.5172 43.3011 14.5512 51.5091C12.2832 60.9141 12.1832 66.7841 14.5512 76.6051C16.3062 83.9161 20.4982 89.1241 27.6752 89.1241H36.1662V77.8421C36.1662 69.6911 43.2172 62.5021 51.5922 62.5021H76.2572C83.1232 62.5021 88.6032 56.8481 88.6032 49.9541V26.4411C88.6032 19.7481 82.9572 14.7211 76.2572 13.6041C72.0132 12.8981 67.6122 12.5771 63.3912 12.5961V12.5961ZM50.0372 20.1651C52.5872 20.1651 54.6712 22.2821 54.6712 24.8861C54.6712 27.4791 52.5882 29.5761 50.0372 29.5761C47.4772 29.5761 45.4042 27.4791 45.4042 24.8861C45.4032 22.2821 47.4772 20.1651 50.0372 20.1651V20.1651Z" fill="#306998"/>
<path d="M91.6821 38.9882V49.9542C91.6821 58.4542 84.4741 65.6092 76.2561 65.6092H51.5911C44.8351 65.6092 39.2451 71.3922 39.2451 78.1582V101.673C39.2451 108.364 45.0631 112.301 51.5911 114.22C59.4071 116.517 66.9031 116.933 76.2561 114.22C82.4721 112.419 88.6021 108.797 88.6021 101.673V92.2612H63.9381V89.1232H100.95C108.126 89.1232 110.802 84.1182 113.298 76.6042C115.876 68.8692 115.765 61.4302 113.298 51.5082C111.524 44.3632 108.137 38.9872 100.95 38.9872H91.6821V38.9882ZM77.8091 98.5352C80.3701 98.5352 82.4431 100.632 82.4431 103.227C82.4431 105.829 80.3691 107.946 77.8091 107.946C75.2591 107.946 73.1761 105.829 73.1761 103.227C73.1761 100.632 75.2591 98.5352 77.8091 98.5352V98.5352Z" fill="#FFD43B"/>
</svg>
