<svg viewBox="0 0 126 113" fill="none" xmlns="http://www.w3.org/2000/svg">
<path d="M63.0001 67.8765C69.2961 67.8765 74.4001 62.7726 74.4001 56.4765C74.4001 50.1805 69.2961 45.0765 63.0001 45.0765C56.7041 45.0765 51.6001 50.1805 51.6001 56.4765C51.6001 62.7726 56.7041 67.8765 63.0001 67.8765Z" fill="#1AA8E6"/>
<path d="M106.3 37.6765C104.1 36.8765 101.8 36.0765 99.3999 35.3765C99.9999 32.9765 100.5 30.5765 100.9 28.2765C103 15.0765 100.7 5.77654 94.2999 2.17654C92.3999 1.07654 90.2999 0.576538 87.8999 0.576538C80.8999 0.576538 71.9999 5.77654 62.9999 14.4765C53.9999 5.77654 45.0999 0.576538 38.0999 0.576538C35.6999 0.576538 33.5999 1.07654 31.6999 2.17654C25.2999 5.87654 22.9999 15.1765 25.0999 28.2765C25.4999 30.5765 25.9999 32.9765 26.5999 35.3765C24.1999 36.0765 21.8999 36.7765 19.6999 37.6765C7.1999 42.4765 0.399902 49.0765 0.399902 56.4765C0.399902 63.8765 7.2999 70.4765 19.6999 75.2765C21.8999 76.0765 24.1999 76.8765 26.5999 77.5765C25.9999 79.9765 25.4999 82.3765 25.0999 84.6765C22.9999 97.8765 25.2999 107.177 31.6999 110.777C33.5999 111.877 35.6999 112.377 38.0999 112.377C45.1999 112.377 54.0999 107.177 62.9999 98.4765C71.9999 107.177 80.8999 112.377 87.8999 112.377C90.2999 112.377 92.3999 111.877 94.2999 110.777C100.7 107.077 103 97.7765 100.9 84.6765C100.5 82.3765 99.9999 79.9765 99.3999 77.5765C101.8 76.8765 104.1 76.1765 106.3 75.2765C118.8 70.4765 125.6 63.8765 125.6 56.4765C125.6 49.0765 118.8 42.4765 106.3 37.6765V37.6765ZM91.4999 7.17654C95.5999 9.57654 96.9999 16.9765 95.2999 27.4765C94.9999 29.5765 94.4999 31.7765 93.8999 34.0765C88.6999 32.8765 83.1999 32.0765 77.3999 31.5765C73.9999 26.7765 70.4999 22.4765 66.9999 18.5765C74.3999 11.2765 81.8999 6.27654 87.9999 6.27654C89.2999 6.27654 90.4999 6.57654 91.4999 7.17654V7.17654ZM80.2999 66.4765C78.4999 69.6765 76.3999 72.8765 74.1999 76.0765C70.4999 76.3765 66.7999 76.4765 62.9999 76.4765C59.0999 76.4765 55.3999 76.3765 51.7999 76.0765C49.5999 72.8765 47.5999 69.6765 45.7999 66.4765C43.8999 63.1765 42.0999 59.7765 40.4999 56.4765C42.0999 53.1765 43.8999 49.7765 45.7999 46.4765C47.5999 43.2765 49.6999 40.0765 51.8999 36.8765C55.5999 36.5765 59.2999 36.4765 63.0999 36.4765C66.9999 36.4765 70.6999 36.5765 74.2999 36.8765C76.4999 40.0765 78.4999 43.2765 80.2999 46.4765C82.1999 49.7765 83.9999 53.1765 85.5999 56.4765C83.8999 59.7765 82.1999 63.0765 80.2999 66.4765ZM88.5999 63.1765C90.0999 66.6765 91.2999 70.0765 92.3999 73.4765C88.9999 74.2765 85.3999 74.8765 81.5999 75.3765C82.7999 73.4765 84.0999 71.4765 85.1999 69.3765C86.3999 67.2765 87.4999 65.1765 88.5999 63.1765ZM62.9999 90.2765C60.5999 87.6765 58.2999 84.8765 56.0999 81.9765C58.3999 82.0765 60.6999 82.1765 62.9999 82.1765C65.2999 82.1765 67.5999 82.0765 69.8999 81.9765C67.6999 84.8765 65.3999 87.6765 62.9999 90.2765ZM44.3999 75.2765C40.5999 74.7765 36.9999 74.1765 33.5999 73.3765C34.6999 70.0765 35.8999 66.5765 37.3999 63.0765C38.4999 65.0765 39.5999 67.1765 40.7999 69.1765C41.9999 71.3765 43.1999 73.2765 44.3999 75.2765V75.2765ZM37.3999 49.7765C35.8999 46.2765 34.6999 42.8765 33.5999 39.4765C36.9999 38.6765 40.5999 38.0765 44.3999 37.5765C43.1999 39.4765 41.8999 41.4765 40.7999 43.5765C39.5999 45.6765 38.4999 47.7765 37.3999 49.7765V49.7765ZM62.9999 22.6765C65.3999 25.2765 67.6999 28.0765 69.8999 30.9765C67.5999 30.8765 65.2999 30.7765 62.9999 30.7765C60.6999 30.7765 58.3999 30.8765 56.0999 30.9765C58.2999 28.0765 60.5999 25.2765 62.9999 22.6765ZM85.1999 43.6765L81.5999 37.6765C85.3999 38.1765 88.9999 38.7765 92.3999 39.5765C91.2999 42.8765 90.0999 46.3765 88.5999 49.8765C87.4999 47.7765 86.3999 45.6765 85.1999 43.6765ZM30.6999 27.4765C28.9999 16.9765 30.3999 9.57654 34.4999 7.17654C35.4999 6.57654 36.6999 6.27654 37.9999 6.27654C43.9999 6.27654 51.4999 11.1765 58.9999 18.5765C55.4999 22.3765 51.9999 26.7765 48.5999 31.5765C42.7999 32.0765 37.2999 32.9765 32.0999 34.0765C31.4999 31.7765 31.0999 29.5765 30.6999 27.4765V27.4765ZM5.9999 56.4765C5.9999 51.7765 11.6999 46.7765 21.6999 43.0765C23.6999 42.2765 25.8999 41.5765 28.0999 40.9765C29.6999 45.9765 31.6999 51.2765 34.0999 56.5765C31.6999 61.8765 29.5999 67.0765 28.0999 72.0765C14.2999 68.0765 5.9999 62.0765 5.9999 56.4765ZM34.4999 105.777C30.3999 103.377 28.9999 95.9765 30.6999 85.4765C30.9999 83.3765 31.4999 81.1765 32.0999 78.8765C37.2999 80.0765 42.7999 80.8765 48.5999 81.3765C51.9999 86.1765 55.4999 90.4765 58.9999 94.3765C51.5999 101.677 44.0999 106.677 37.9999 106.677C36.6999 106.677 35.4999 106.377 34.4999 105.777ZM95.2999 85.4765C96.9999 95.9765 95.5999 103.377 91.4999 105.777C90.4999 106.377 89.2999 106.677 87.9999 106.677C81.9999 106.677 74.4999 101.777 66.9999 94.3765C70.4999 90.5765 73.9999 86.1765 77.3999 81.3765C83.1999 80.8765 88.6999 79.9765 93.8999 78.8765C94.4999 81.1765 94.8999 83.3765 95.2999 85.4765V85.4765ZM104.3 69.8765C102.3 70.6765 100.1 71.3765 97.8999 71.9765C96.2999 66.9765 94.2999 61.6765 91.8999 56.3765C94.2999 51.0765 96.3999 45.8765 97.8999 40.8765C111.7 44.8765 120 50.8765 120 56.4765C120 61.1765 114.2 66.1765 104.3 69.8765Z" fill="#1AA8E6"/>
</svg>
