<svg   viewBox="0 0 129 129" fill="none" xmlns="http://www.w3.org/2000/svg">
<path fill-rule="evenodd" clip-rule="evenodd" d="M1.26807 56.6326C1.26807 57.3356 1.47507 57.7996 1.59107 58.2506C2.34707 61.1836 3.97207 63.7006 5.90007 65.9966C8.64607 69.2686 12.0091 71.9026 15.4541 74.3796C18.4421 76.5276 21.4911 78.6276 24.4911 80.7596C25.0061 81.1256 25.4931 81.5466 26.0521 81.9956C25.5711 82.2556 25.1711 82.4846 24.7551 82.6956C20.7961 84.7036 16.9871 86.9546 13.4761 89.6816C11.3601 91.3256 9.31407 93.0726 7.86907 95.3556C5.54407 99.0276 4.72107 102.94 6.45407 107.117C6.96007 108.337 7.73207 109.391 8.82107 110.17C9.17407 110.422 9.57007 110.672 9.98307 110.77C11.0411 111.019 12.1191 111.182 13.1901 111.379L16.2231 111.377C19.5771 111.078 22.6301 109.929 25.3891 108.025C29.7011 105.049 32.6061 101.059 33.8551 95.9376C34.7631 92.2156 34.8001 88.4896 33.7301 84.7846C33.6277 84.4413 33.5095 84.103 33.3761 83.7706C33.2461 83.4376 33.0931 83.1136 32.9131 82.6986L39.7891 78.7446L39.8921 78.8326C39.7671 79.2416 39.6341 79.6496 39.5211 80.0626C38.7041 83.0466 38.1611 86.0826 38.3561 89.1796C38.5641 92.4796 39.4851 95.5686 41.4171 98.3256C42.9791 100.556 46.7011 100.639 48.3611 98.4006C48.9501 97.6056 49.5211 96.7746 49.9501 95.8876C51.0711 93.5726 52.1091 91.2166 53.1801 88.8766L53.3671 88.4486C53.2901 89.5566 53.2001 90.5296 53.1591 91.5036C53.0951 93.0246 53.1841 94.5366 53.7041 95.9836C54.1491 97.2216 54.9061 98.1466 56.3241 98.3096C57.2941 98.4206 58.0671 97.9766 58.7801 97.4136C59.8846 96.5407 60.8002 95.4523 61.4711 94.2146C63.3721 90.7236 65.3241 87.2536 67.0471 83.6746C68.9111 79.8036 70.5411 75.8196 72.2721 71.8826L72.5581 71.1846C72.9671 72.7916 73.2521 74.3656 73.7771 75.8556C74.3871 77.5846 75.1421 79.2726 75.9641 80.9136C76.3531 81.6886 76.3081 82.1916 75.7691 82.8416C73.5131 85.5616 71.2961 88.3146 69.0771 91.0646C68.5861 91.6716 68.0971 92.2896 67.6881 92.9526C67.4399 93.3712 67.2768 93.8348 67.2081 94.3166C67.1392 94.7601 67.2448 95.2131 67.5026 95.5806C67.7605 95.948 68.1505 96.2014 68.5911 96.2876C69.4801 96.479 70.3918 96.544 71.2991 96.4806C74.3961 96.2526 77.2081 95.1656 79.6941 93.3236C82.9151 90.9376 83.9491 87.6816 83.1691 83.8226C82.9581 82.7756 82.5851 81.7576 82.2221 80.7486C82.0591 80.2936 82.0481 79.9746 82.3451 79.5506C84.9201 75.8736 87.1201 71.9726 89.1661 67.9816C89.2471 67.8246 89.3301 67.6676 89.4721 67.4996C90.1351 70.9496 91.1331 74.2746 92.9211 77.2916C92.0091 78.1706 91.1061 78.9676 90.2891 79.8456C88.4901 81.7796 86.9301 83.8796 86.1161 86.4406C85.7661 87.5446 85.4971 88.6666 85.6531 89.8456C85.8951 91.6766 87.3951 92.8666 89.1961 92.4496C93.0501 91.5576 96.3771 89.7416 98.8081 86.5246C100.444 84.3586 100.593 81.9426 99.9081 79.4116C99.7201 78.7236 99.4971 78.0466 99.2571 77.2576C100.208 76.9626 101.135 76.6086 102.094 76.3896C107.073 75.2536 111.998 75.4516 116.796 77.2496C119.597 78.2996 121.86 80.0566 123.202 82.8206C124.841 86.1996 123.935 89.4056 120.75 91.5416C120.453 91.7406 120.113 91.8976 119.867 92.1466C119.788 92.2379 119.729 92.3446 119.694 92.46C119.659 92.5753 119.648 92.6968 119.662 92.8166C119.683 92.9396 120.008 93.0936 120.195 93.0916C121.242 93.0836 122.091 92.5346 122.906 91.9706C124.948 90.5576 126.438 88.6566 126.759 86.1536L126.822 85.9656L126.745 84.3356C126.714 84.2416 126.768 84.1486 126.761 84.0776C126.327 80.4326 124.38 77.6056 121.548 75.3896C118.268 72.8246 114.395 71.7686 110.299 71.6016C106.977 71.4586 103.659 71.9693 100.534 73.1046C99.6371 73.4296 98.7481 73.8146 97.8461 74.1776C97.7251 73.9586 97.5951 73.7486 97.4881 73.5316C96.5621 71.6356 95.4401 69.8236 95.1921 67.6496C95.0161 66.1056 94.8001 64.5636 95.1671 63.0366C95.5201 61.5676 95.9801 60.1236 96.4131 58.6746C96.6361 57.9286 96.4791 57.5106 95.7671 57.1746C95.519 57.0508 95.2542 56.9639 94.9811 56.9166C93.2311 56.6626 91.5051 56.8076 89.8101 57.3006C89.2101 57.4756 88.7741 57.8116 88.6411 58.4756C88.5651 58.8566 88.4101 59.2216 88.3021 59.5976C87.8591 61.1606 87.5451 62.7536 86.8291 64.2426C85.0351 67.9776 82.9871 71.5716 80.8911 75.1396C80.6641 75.5246 80.4251 75.9026 80.1391 76.3696C79.4031 74.8296 78.6181 73.4476 78.3801 71.8276C78.1111 69.9956 77.8991 68.1666 78.3551 66.3486C78.6941 64.9926 79.1371 63.6616 79.5451 62.3236C79.7381 61.6876 79.6491 61.3536 79.0731 61.0186C78.7821 60.8496 78.4531 60.6996 78.1251 60.6506C76.3307 60.3772 74.4972 60.5272 72.7711 61.0886C72.2281 61.2646 71.9431 61.6156 71.7771 62.1756C71.2891 63.8276 70.8731 65.5196 70.1881 67.0906C67.4141 73.4506 64.5601 79.7776 61.7091 86.1036C61.1141 87.4246 60.4171 88.6996 59.7461 89.9856C59.5761 90.3116 59.3281 90.5986 59.1161 90.9046C58.9461 90.7036 58.8801 90.5656 58.8811 90.4276C58.8861 89.6146 58.7891 88.7776 58.9441 87.9916C59.42 85.6144 59.9461 83.2475 60.5221 80.8926C60.9921 78.9466 61.5391 77.0186 62.0601 75.0856C62.2351 74.4386 62.2381 73.8336 61.7731 73.2896C60.9921 72.3786 59.3601 72.1786 58.3921 72.8806L57.9641 73.1226L58.0471 72.4326C58.2511 70.9536 58.2921 69.4796 57.8861 68.0226C57.3801 66.2066 56.0841 65.1616 54.2001 65.2196C53.3221 65.2466 52.4001 65.3966 51.5871 65.7166C48.1681 67.0566 45.5391 69.4296 43.3011 72.2846C43.0936 72.5496 42.8365 72.7718 42.5441 72.9386C39.6511 74.5426 36.7491 76.1266 33.8481 77.7166L30.6191 79.4856C29.7531 78.6596 28.9661 77.8026 28.0731 77.0756C25.3461 74.8516 22.5751 72.6826 19.8291 70.4836C17.3951 68.5346 15.0371 66.5046 13.2331 63.9236C11.8911 62.0036 11.0261 59.9026 10.9431 57.5286C10.8381 54.5036 11.6961 51.7396 13.2361 49.1666C15.2061 45.8746 17.8931 43.2326 20.8471 40.8396C23.9721 38.3096 27.3521 36.1616 30.8551 34.2006C35.7561 31.4576 40.7971 29.0296 46.2021 27.4266C51.7441 25.7826 57.3671 24.8416 63.1671 25.4976C65.4471 25.7556 67.6611 26.2776 69.6941 27.3926C71.2511 28.2456 72.5281 29.3626 73.1221 31.1086C73.7081 32.8266 73.6901 34.5676 73.2841 36.3126C72.4591 39.8466 70.5241 42.7596 68.0891 45.3626C64.0951 49.6296 59.2231 52.5346 53.7381 54.4536C50.5843 55.5584 47.3031 56.2583 43.9731 56.5366C41.2441 56.7656 38.5721 56.5236 35.9881 55.5746C34.2771 54.9456 32.7871 53.9836 31.5891 52.5876C31.3751 52.3376 31.1011 52.0666 30.7021 52.3006C30.3111 52.5306 30.2421 52.9026 30.3731 53.2796C30.5921 53.9056 30.7941 54.5576 31.1351 55.1176C31.9921 56.5226 33.2421 57.5416 34.6181 58.4156C37.2611 60.0966 40.2151 60.6616 43.2781 60.7926C47.9261 60.9936 52.4611 60.2996 56.9321 59.0526C63.3151 57.2726 68.8651 54.1286 73.3161 49.1686C77.0221 45.0386 79.6691 40.3776 80.2361 34.7496C80.5131 32.0026 80.2181 29.3116 78.9321 26.8056C77.5371 24.0906 75.3191 22.0716 72.6671 20.6806C68.8051 18.6556 64.6371 17.4766 60.3351 17.4766H56.0251C50.8151 17.4766 45.7781 18.9696 40.8821 20.7506C37.1761 22.0996 33.5421 23.6916 30.0141 25.4536C22.3311 29.2926 15.1761 33.9216 9.29907 40.2866C6.37107 43.4576 3.89207 46.9566 2.46607 51.0766C2.03567 52.3066 1.66491 53.5567 1.35507 54.8226L1.26807 56.6326ZM29.1941 90.8356C28.8611 95.2946 26.8401 98.9096 23.5371 101.838C21.6791 103.484 19.5481 104.656 17.0661 105.068C16.1661 105.217 15.2451 105.253 14.3721 104.88C13.1271 104.348 12.8481 103.243 12.8241 102.066C12.7871 100.19 13.4441 98.4936 14.3451 96.8796C15.5211 94.7756 17.2451 93.1716 19.0861 91.6736C21.9861 89.3126 25.1321 87.3146 28.3541 85.4286L28.5971 85.3286C29.0951 87.1686 29.3321 88.9856 29.1941 90.8356V90.8356ZM54.3521 71.4566C54.1171 72.8806 53.8231 74.3056 53.4071 75.6856C51.9691 80.4626 50.1221 85.0916 48.1251 89.6586C47.7561 90.5036 47.2191 91.2746 46.7521 92.0756C46.6726 92.1987 46.5775 92.311 46.4691 92.4096C45.8911 92.9806 45.3431 92.9506 45.0511 92.2036C44.7111 91.3356 44.5021 90.4066 44.3221 89.4876C44.2011 88.8706 44.2301 88.2226 44.1921 87.5906C44.2311 83.0966 45.6021 79.0126 47.9281 75.2106C48.8871 73.6426 49.9311 72.1486 51.5261 71.1566C52.0222 70.8481 52.5591 70.6104 53.1211 70.4506C53.9711 70.2116 54.4931 70.6046 54.3521 71.4566V71.4566ZM71.5161 93.3246L77.6851 86.1216C77.9421 88.7966 73.3951 94.1366 71.5161 93.3246ZM91.2191 88.4776C90.7831 88.7276 90.3081 88.9076 89.8611 89.1386C89.4521 89.3506 89.3171 89.1366 89.3051 88.7846C89.299 88.5409 89.3304 88.2977 89.3981 88.0636C90.2311 85.1256 91.7641 82.6176 94.0451 80.5776L94.2051 80.4956C95.2901 83.5306 94.0361 86.8636 91.2191 88.4776Z" fill="#E23661"/>
</svg>
