<svg viewBox="0 0 129 129" fill="none" xmlns="http://www.w3.org/2000/svg">
    <path d="M64.3374 26.0366C47.2704 26.0366 36.6074 34.5666 32.3374 51.6336C38.7354 43.1026 46.2044 39.9036 54.7354 42.0366C59.6064 43.2506 63.0874 46.7826 66.9424 50.6966C73.2164 57.0636 80.4784 64.4346 96.3374 64.4346C113.403 64.4346 124.067 55.9036 128.337 38.8326C121.938 47.3686 114.47 50.5676 105.938 48.4346C101.068 47.2196 97.5914 43.6886 93.7314 39.7746C87.4614 33.4076 80.2014 26.0366 64.3374 26.0366V26.0366ZM32.3374 64.4346C15.2714 64.4346 4.6074 72.9656 0.337402 90.0366C6.7354 81.5006 14.2034 78.3016 22.7354 80.4346C27.6064 81.6496 31.0874 85.1806 34.9424 89.0946C41.2164 95.4616 48.4784 102.833 64.3374 102.833C81.4034 102.833 92.0674 94.3026 96.3374 77.2356C89.9384 85.7666 82.4704 88.9656 73.9384 86.8326C69.0684 85.6186 65.5914 82.0866 61.7314 78.1726C55.4614 71.8056 48.2014 64.4346 32.3374 64.4346Z" fill="#13C1B9"/>
</svg>
