<svg viewBox="0 0 129 129" fill="none" xmlns="http://www.w3.org/2000/svg">
<path d="M4.0021 45.9838C4.0021 45.9838 0.9751 43.7928 4.6121 40.8708L13.0801 33.2768C13.0801 33.2768 15.5061 30.7178 18.0691 32.9488L96.2441 92.2768V120.727C96.2441 120.727 96.2051 125.195 90.4871 124.703L4.0021 45.9838Z" fill="#2489CA"/>
<path d="M24.155 64.3196L4.00203 82.6826C4.00203 82.6826 1.93203 84.2256 4.00203 86.9876L13.358 95.5146C13.358 95.5146 15.58 97.9096 18.866 95.1866L40.225 78.9486L24.155 64.3196Z" fill="#1070B3"/>
<path d="M59.5301 64.4716L96.4831 36.1866L96.2441 7.88961C96.2441 7.88961 94.6661 1.71361 89.4011 4.93061L40.2251 49.7916L59.5301 64.4716Z" fill="#0877B9"/>
<path d="M90.4864 124.738C92.6314 126.941 95.2334 126.218 95.2334 126.218L124.03 111.996C127.717 109.476 127.201 106.351 127.201 106.351V21.4056C127.201 17.6706 123.389 16.3816 123.389 16.3816L98.4284 4.32061C92.9754 0.94161 89.4014 4.93061 89.4014 4.93061C89.4014 4.93061 93.9944 1.61361 96.2444 7.89061V120.208C96.2444 120.981 96.0804 121.738 95.7524 122.422C95.0964 123.754 93.6664 124.992 90.2484 124.473L90.4864 124.738Z" fill="#3C99D4"/>
</svg>
